<?xml version="1.0" standalone="no"?>
<!DOCTYPE svg PUBLIC "-//W3C//DTD SVG 20010904//EN"
 "http://www.w3.org/TR/2001/REC-SVG-20010904/DTD/svg10.dtd">
<svg version="1.0" xmlns="http://www.w3.org/2000/svg"
 width="128.000000pt" height="128.000000pt" viewBox="0 0 128.000000 128.000000"
 preserveAspectRatio="xMidYMid meet">

<g transform="translate(0.000000,128.000000) scale(0.100000,-0.100000)"
fill="#000000" stroke="none">
<path d="M881 1116 c-199 -71 -347 -129 -352 -139 -5 -8 -6 -22 -3 -30 3 -8
74 -40 157 -71 138 -51 187 -80 187 -107 0 -5 -183 -9 -423 -9 -316 0 -426 -3
-435 -12 -17 -17 -17 -679 0 -696 17 -17 999 -17 1016 0 9 9 12 76 12 239 l0
226 121 343 c125 353 129 373 83 377 -10 1 -174 -54 -363 -121z m104 -116
c-60 -60 -114 -110 -119 -110 -14 0 -186 65 -186 70 0 4 389 145 410 149 2 1
-45 -48 -105 -109z m113 -92 c-28 -79 -60 -171 -71 -205 -12 -35 -24 -63 -27
-63 -4 0 -11 15 -17 33 -6 17 -21 60 -34 95 l-23 62 109 110 c60 61 111 110
112 110 1 0 -21 -64 -49 -142z m-167 -308 c29 -73 29 -78 29 -277 l0 -203
-440 0 -440 0 0 280 0 280 411 -2 412 -3 28 -75z"/>
<path d="M178 550 c-16 -10 -18 -28 -18 -148 0 -94 4 -142 12 -150 7 -7 43
-12 93 -12 138 0 207 54 207 160 0 59 -29 113 -75 137 -38 20 -193 29 -219 13z
m197 -95 c31 -30 32 -73 4 -109 -18 -23 -28 -26 -80 -26 l-59 0 0 80 0 80 55
0 c46 0 60 -4 80 -25z"/>
<path d="M576 544 c-13 -12 -16 -40 -16 -140 0 -131 8 -164 40 -164 29 0 40
31 40 110 l0 72 35 -31 c20 -17 41 -31 47 -31 7 0 27 14 45 32 l33 32 0 -76
c0 -77 13 -108 44 -108 30 0 36 25 36 156 0 107 -3 136 -16 148 -23 24 -30 21
-90 -35 l-54 -52 -54 52 c-60 56 -67 59 -90 35z"/>
</g>
</svg>
